<svg width="14" height="14" viewBox="0 0 14 14" fill="none" xmlns="http://www.w3.org/2000/svg">
<path fill-rule="evenodd" clip-rule="evenodd" d="M7 0.0664062C6.77608 0.0665878 6.55661 0.128899 6.366 0.246406L0.456 4.11641C0.036 4.39341 -0.092 4.87041 0.07 5.27741C0.226 5.66941 0.62 5.93441 1.09 5.93441H12.91C13.38 5.93441 13.774 5.66941 13.93 5.27741C14.092 4.87041 13.964 4.39341 13.545 4.11741L13.544 4.11641L7.634 0.246406C7.44339 0.128899 7.22392 0.0665878 7 0.0664062ZM0 11.8774C0 11.2774 0.572 10.9884 1 10.9884H1.055C1.05303 10.9705 1.05203 10.9524 1.052 10.9344V7.72341C1.052 7.5908 1.10468 7.46362 1.19845 7.36985C1.29221 7.27608 1.41939 7.22341 1.552 7.22341H3.216C3.34861 7.22341 3.47579 7.27608 3.56955 7.36985C3.66332 7.46362 3.716 7.5908 3.716 7.72341V10.9344C3.71596 10.9524 3.71496 10.9705 3.713 10.9884H5.671C5.66904 10.9705 5.66804 10.9524 5.668 10.9344V7.72341C5.668 7.5908 5.72068 7.46362 5.81445 7.36985C5.90821 7.27608 6.03539 7.22341 6.168 7.22341H7.832C7.89766 7.22341 7.96268 7.23634 8.02334 7.26147C8.084 7.28659 8.13912 7.32342 8.18555 7.36985C8.23198 7.41628 8.26881 7.4714 8.29394 7.53206C8.31907 7.59273 8.332 7.65775 8.332 7.72341V10.9344C8.33197 10.9524 8.33097 10.9705 8.329 10.9884H10.287C10.285 10.9705 10.284 10.9524 10.284 10.9344V7.72341C10.284 7.5908 10.3367 7.46362 10.4304 7.36985C10.5242 7.27608 10.6514 7.22341 10.784 7.22341H12.448C12.5806 7.22341 12.7078 7.27608 12.8016 7.36985C12.8953 7.46362 12.948 7.5908 12.948 7.72341V10.9344C12.948 10.9524 12.947 10.9705 12.945 10.9884H13C13.428 10.9884 14 11.2774 14 11.8784V13.0454C14 13.6454 13.428 13.9344 13 13.9344H1C0.572 13.9344 0 13.6454 0 13.0444V11.8774Z" fill="#3B82F6"/>
</svg>
