<svg
  xmlns="http://www.w3.org/2000/svg"
  width="72"
  height="72"
  viewBox="0 0 72 72"
>
  <g fill="none" fill-rule="evenodd">
    <circle cx="36" cy="36" r="36" fill="#009"></circle>
    <path
      fill="#FFF"
      d="m50.8 11.6.791 2.523 2.417-.939-1.43 2.208 2.222 1.353-2.574.23.354 2.625-1.78-1.921-1.78 1.921.354-2.625-2.574-.23 2.222-1.353-1.43-2.208 2.417.94.791-2.524zm10.4 16.8.791 2.523 2.417-.939-1.43 2.208 2.222 1.353-2.574.23.354 2.625-1.78-1.921-1.78 1.921.354-2.625-2.574-.23 2.222-1.353-1.43-2.208 2.417.94.791-2.524zM42.4 24l.791 2.523 2.417-.939-1.43 2.208 2.222 1.353-2.574.23L44.18 32l-1.78-1.921L40.62 32l.354-2.625-2.574-.23 2.222-1.353-1.43-2.208 2.417.94L42.4 24zm8.4 26.4.791 2.523 2.417-.939-1.43 2.208 2.222 1.353-2.574.23.354 2.625-1.78-1.921-1.78 1.921.354-2.625-2.574-.23 2.222-1.353-1.43-2.208 2.417.94.791-2.524zm-29.6-8.8 1.661 5.299 5.075-1.972-3.003 4.637 4.667 2.84-5.406.483.744 5.513-3.738-4.035-3.738 4.035.744-5.513-5.406-.483 4.667-2.84-3.003-4.637 5.075 1.972L21.2 41.6zm32.2-2.4.494 1.548H55.6l-1.347.947.494 1.505-1.347-.946-1.347.903.494-1.462-1.347-.947h1.661L53.4 39.2zM23.467 2.242l-6.909 3.454C6.598 12.099 0 23.279 0 36h7.2V25.625L27.95 36H36v-4.025L18.85 23.4H36V12.6H18.85L36 4.025V0c-4.408 0-8.63.792-12.533 2.242z"
    ></path>
    <path
      fill="#E94B35"
      d="M7.197 14.4H36v7.2H4.8V36H0a35.84 35.84 0 0 1 7.197-21.6zM30.365.438 9.943 11.16c-.447.468-.88.948-1.302 1.44H12L36 0h-.003c-1.916 0-3.797.15-5.632.438zM11.2 23.4H16l20 10.2V36L11.2 23.4z"
    ></path>
  </g>
</svg>
