<svg
  xmlns="http://www.w3.org/2000/svg"
  width="72"
  height="72"
  viewBox="0 0 72 72"
>
  <g fill="none" fill-rule="evenodd">
    <path
      fill="#FFF"
      d="M60 62.833A35.866 35.866 0 0 1 36 72c-9.22 0-17.63-3.466-24-9.167V9.167A35.866 35.866 0 0 1 36 0c9.22 0 17.63 3.466 24 9.167v53.666z"
    ></path>
    <path
      fill="#FF381C"
      d="M60 62.833C67.365 56.241 72 46.662 72 36c0-10.662-4.635-20.241-12-26.833v53.666zM12 9.167C4.635 15.759 0 25.338 0 36c0 10.662 4.635 20.241 12 26.833V9.167zm24 10.858-2.584 4.819c-.293.523-.818.475-1.344.182l-1.87-.968 1.394 7.4c.293 1.353-.647 1.353-1.112.768l-3.264-3.654-.53 1.856c-.06.244-.33.5-.733.439l-4.127-.868 1.084 3.941c.232.877.413 1.24-.234 1.472l-1.472.691 7.106 5.772a.93.93 0 0 1 .323.966l-.622 2.041c2.447-.282 4.639-.706 7.086-.968.216-.023.578.334.577.584l-.324 7.477h1.19l-.188-7.46c-.002-.251.327-.624.543-.6 2.447.26 4.64.685 7.086.967l-.622-2.04a.93.93 0 0 1 .323-.967l7.106-5.772-1.472-.691c-.647-.232-.466-.595-.234-1.472L50.17 30l-4.127.868c-.403.06-.672-.195-.733-.44l-.53-1.855-3.264 3.654c-.465.585-1.405.585-1.112-.767l1.394-7.401-1.87.968c-.526.293-1.05.341-1.344-.182"
    ></path>
  </g>
</svg>
