<svg
  xmlns="http://www.w3.org/2000/svg"
  width="180"
  height="180"
  viewBox="0 0 180 180"
>
  <g fill="none" fill-rule="evenodd">
    <circle cx="90" cy="90" r="90" fill="#0058B4"></circle>
    <path
      fill="#FFF"
      d="M37.219 17.094 90 69.875l52.781-52.781a90.518 90.518 0 0 1 20.125 20.125L110.125 90l52.781 52.781a90.518 90.518 0 0 1-20.125 20.125L90 110.125l-52.781 52.781a90.518 90.518 0 0 1-20.125-20.125L69.875 90 17.094 37.219a90.518 90.518 0 0 1 20.125-20.125z"
    ></path>
    <path
      fill="#FF381C"
      d="M161.136 145.14 114.921 98H99.3l54.55 55.428a90.51 90.51 0 0 0 7.285-8.288zM34.731 161.035 96 99H80l-53.803 54.476a90.516 90.516 0 0 0 8.534 7.56zM153.745 26.466 102.5 78.125H88l58.065-58.533a90.524 90.524 0 0 1 7.68 6.874zM18.948 34.752 59.042 75h15.73L26.32 26.4a90.514 90.514 0 0 0-7.372 8.352z"
    ></path>
    <path
      fill="#FFF"
      d="M70 2.23V70H2.23A90.296 90.296 0 0 0 0 90c0 6.874.77 13.568 2.23 20H70v67.77A90.296 90.296 0 0 0 90 180c6.874 0 13.568-.77 20-2.23V110h67.77A90.296 90.296 0 0 0 180 90c0-6.874-.77-13.568-2.23-20H110V2.23A90.296 90.296 0 0 0 90 0c-6.874 0-13.568.77-20 2.23z"
    ></path>
    <path
      fill="#FF381C"
      d="M75 1.244V75H1.244A90.609 90.609 0 0 0 0 90c0 5.11.426 10.122 1.244 15H75v73.756A90.609 90.609 0 0 0 90 180c5.11 0 10.122-.426 15-1.244V105h73.756A90.609 90.609 0 0 0 180 90c0-5.11-.426-10.122-1.244-15H105V1.244A90.609 90.609 0 0 0 90 0c-5.11 0-10.122.426-15 1.244z"
    ></path>
  </g>
  <g fill="none" fill-rule="evenodd">
    <circle cx="90" cy="90" r="90" fill="#0058B4"></circle>
    <path
      fill="#FFF"
      d="M37.219 17.094 90 69.875l52.781-52.781a90.518 90.518 0 0 1 20.125 20.125L110.125 90l52.781 52.781a90.518 90.518 0 0 1-20.125 20.125L90 110.125l-52.781 52.781a90.518 90.518 0 0 1-20.125-20.125L69.875 90 17.094 37.219a90.518 90.518 0 0 1 20.125-20.125z"
    ></path>
    <path
      fill="#FF381C"
      d="M161.136 145.14 114.921 98H99.3l54.55 55.428a90.51 90.51 0 0 0 7.285-8.288zM34.731 161.035 96 99H80l-53.803 54.476a90.516 90.516 0 0 0 8.534 7.56zM153.745 26.466 102.5 78.125H88l58.065-58.533a90.524 90.524 0 0 1 7.68 6.874zM18.948 34.752 59.042 75h15.73L26.32 26.4a90.514 90.514 0 0 0-7.372 8.352z"
    ></path>
    <path
      fill="#FFF"
      d="M70 2.23V70H2.23A90.296 90.296 0 0 0 0 90c0 6.874.77 13.568 2.23 20H70v67.77A90.296 90.296 0 0 0 90 180c6.874 0 13.568-.77 20-2.23V110h67.77A90.296 90.296 0 0 0 180 90c0-6.874-.77-13.568-2.23-20H110V2.23A90.296 90.296 0 0 0 90 0c-6.874 0-13.568.77-20 2.23z"
    ></path>
    <path
      fill="#FF381C"
      d="M75 1.244V75H1.244A90.609 90.609 0 0 0 0 90c0 5.11.426 10.122 1.244 15H75v73.756A90.609 90.609 0 0 0 90 180c5.11 0 10.122-.426 15-1.244V105h73.756A90.609 90.609 0 0 0 180 90c0-5.11-.426-10.122-1.244-15H105V1.244A90.609 90.609 0 0 0 90 0c-5.11 0-10.122.426-15 1.244z"
    ></path>
  </g>
</svg>
