<svg
  xmlns="http://www.w3.org/2000/svg"
  xmlns:xlink="http://www.w3.org/1999/xlink"
  width="32"
  height="32"
  viewBox="0 0 32 32"
>
  <defs>
    <path id="a" d="M16 0C7.163 0 0 7.163 0 16h16V0z"></path>
  </defs>
  <g fill="none" fill-rule="evenodd">
    <circle cx="16" cy="16" r="16" fill="#FFF"></circle>
    <path
      fill="#E80000"
      d="M16 7.467h13.537a16.068 16.068 0 0 0-1.94-2.49H16v2.49zM16 0c3.154 0 6.096.913 8.574 2.489H16V0zm0 12.444h15.604a15.877 15.877 0 0 0-.785-2.488H16v2.488zM0 16c0 .48.021.954.062 1.422h31.876a16.207 16.207 0 0 0 .027-2.489H16V16H0zm31.519 3.911c-.216.86-.502 1.691-.85 2.489H1.33a15.879 15.879 0 0 1-.85-2.489h31.04zm-2.213 4.978a16.08 16.08 0 0 1-2.057 2.489H4.751a16.08 16.08 0 0 1-2.057-2.49h26.612zm-5.318 4.978A15.926 15.926 0 0 1 16 32c-2.91 0-5.637-.776-7.988-2.133h15.976z"
    ></path>
    <mask id="b" fill="#fff">
      <use xlink:href="#a"></use>
    </mask>
    <use fill="#0039D2" xlink:href="#a"></use>
    <g fill="#FFF" mask="url(#b)">
      <path
        d="m12.686 4.404-1.053.574.201-1.215-.852-.86 1.177-.177.527-1.105.527 1.105 1.177.177-.852.86.201 1.215zm.018 4.61-1.053.573.201-1.214-.852-.86 1.178-.177.526-1.105.527 1.105 1.177.177-.852.86.201 1.214zm0 5-1.053.573.201-1.214-.852-.86 1.178-.177.526-1.105.527 1.105 1.177.177-.852.86.201 1.214zm-5.928-5-1.053.573.201-1.214-.852-.86 1.178-.177.526-1.105.527 1.105 1.178.177-.852.86.2 1.214zm-5.612 0L.11 9.587l.201-1.214-.852-.86 1.178-.177.527-1.105.526 1.105 1.178.177-.852.86.2 1.214zm5.594-4.61-1.053.574.201-1.215-.852-.86 1.178-.177.526-1.105.527 1.105 1.178.177-.853.86.202 1.215zm-5.054-.39-1.053.573.201-1.214L0 2.513l1.178-.177.526-1.105.527 1.105 1.177.177-.852.86.201 1.214zm5.072 10-1.053.573.201-1.214-.852-.86 1.178-.177.526-1.105.527 1.105 1.178.177-.852.86.2 1.214zm-5.612 0-1.054.573.201-1.214-.852-.86 1.178-.177.527-1.105.526 1.105 1.178.177-.852.86.2 1.214z"
      ></path>
    </g>
  </g>
</svg>
